<?xml version="1.0" encoding="UTF-8" standalone="no"?>
<svg width="120" height="40" viewBox="0 0 120 40" fill="none" xmlns="http://www.w3.org/2000/svg">
<g clip-path="url(#clip0)">
<path d="M110.444 0.00013H9.56145C9.19372 0.00013 8.8304 0.00013 8.46364 0.00213C8.15663 0.00413 7.85207 0.00994 7.54211 0.01483C6.86874 0.0227318 6.19695 0.0818063 5.53259 0.19154C4.86915 0.303663 4.2265 0.515046 3.62637 0.81854C3.02697 1.1246 2.47929 1.5223 2.00318 1.9972C1.52457 2.47077 1.12561 3.01815 0.82165 3.61829C0.516847 4.21724 0.305496 4.85907 0.194896 5.52161C0.083244 6.18332 0.0231632 6.85265 0.0151925 7.52361C0.00588648 7.83021 0.00490373 8.13783 0 8.44447V31.5587C0.00490373 31.8692 0.00588648 32.17 0.0151925 32.4806C0.0231657 33.1516 0.0832464 33.8209 0.194896 34.4825C0.30519 35.1455 0.516554 35.7877 0.82165 36.3868C1.12548 36.985 1.52449 37.5302 2.00318 38.0011C2.47748 38.4781 3.02552 38.8761 3.62637 39.1798C4.2265 39.4841 4.86908 39.6968 5.53259 39.8106C6.19707 39.9195 6.86879 39.9786 7.54211 39.9874C7.85207 39.9942 8.15663 39.9981 8.46364 39.9981C8.83039 40.0001 9.19374 40.0001 9.56145 40.0001H110.444C110.804 40.0001 111.171 40.0001 111.531 39.9981C111.837 39.9981 112.15 39.9942 112.455 39.9874C113.128 39.9791 113.798 39.92 114.461 39.8106C115.127 39.696 115.772 39.4834 116.375 39.1798C116.975 38.8759 117.522 38.478 117.996 38.0011C118.474 37.5284 118.874 36.9836 119.181 36.3868C119.484 35.7872 119.693 35.1451 119.802 34.4825C119.914 33.8208 119.976 33.1516 119.988 32.4806C119.992 32.17 119.992 31.8692 119.992 31.5587C120 31.1954 120 30.8341 120 30.4649V9.53626C120 9.17005 120 8.80677 119.992 8.44447C119.992 8.13783 119.992 7.83021 119.988 7.52357C119.976 6.85255 119.914 6.18337 119.802 5.52157C119.693 4.85941 119.484 4.21763 119.181 3.61825C118.562 2.41533 117.581 1.43616 116.375 0.81845C115.772 0.515697 115.127 0.30437 114.461 0.19145C113.798 0.0812328 113.128 0.0221378 112.455 0.01469C112.15 0.00981 111.837 0.00395 111.531 0.002C111.171 0 110.804 0 110.444 0V0.00013Z" fill="#A6A6A6"/>
<path d="M8.46808 39.125C8.16254 39.125 7.86439 39.1211 7.56125 39.1143C6.93327 39.1061 6.30676 39.0516 5.68686 38.9512C5.10883 38.8519 4.54888 38.6673 4.02547 38.4033C3.50686 38.1415 3.03385 37.7983 2.62455 37.3867C2.20933 36.98 1.86363 36.5082 1.60117 35.9902C1.33582 35.4688 1.15218 34.9099 1.05665 34.333C0.953484 33.7131 0.897668 33.0863 0.889681 32.458C0.883323 32.2471 0.875 31.5449 0.875 31.5449V8.44434C0.875 8.44434 0.883865 7.75293 0.889731 7.5498C0.897379 6.92248 0.95287 6.29665 1.05573 5.67773C1.15143 5.09925 1.33522 4.53875 1.60071 4.01563C1.86221 3.49794 2.20598 3.02586 2.6187 2.61768C3.03096 2.20562 3.50549 1.8606 4.02498 1.59521C4.54718 1.33209 5.10608 1.14873 5.68294 1.05127C6.30488 0.949836 6.93356 0.894996 7.56371 0.88721L8.46857 0.875H111.526L112.441 0.8877C113.066 0.895099 113.689 0.94945 114.305 1.05029C114.888 1.14898 115.452 1.33362 115.98 1.59814C117.021 2.13299 117.868 2.97916 118.402 4.01807C118.664 4.53758 118.844 5.09351 118.939 5.66699C119.043 6.29099 119.101 6.92174 119.113 7.5542C119.116 7.8374 119.116 8.1416 119.116 8.44434C119.124 8.81934 119.124 9.17627 119.124 9.53613V30.4648C119.124 30.8281 119.124 31.1826 119.116 31.54C119.116 31.8652 119.116 32.1631 119.112 32.4697C119.101 33.0909 119.043 33.7104 118.941 34.3232C118.847 34.9043 118.665 35.4675 118.399 35.9932C118.135 36.5056 117.791 36.9733 117.381 37.3789C116.971 37.7927 116.497 38.1379 115.978 38.4014C115.451 38.6674 114.887 38.8527 114.305 38.9512C113.685 39.0522 113.058 39.1067 112.43 39.1143C112.137 39.1211 111.829 39.125 111.531 39.125L110.443 39.127L8.46808 39.125Z" fill="black"/>
<path d="M24.8389 20.3013C24.8496 19.4666 25.072 18.6483 25.4851 17.9223C25.8983 17.1964 26.4889 16.5864 27.202 16.1492C26.749 15.5041 26.1514 14.9731 25.4566 14.5986C24.7619 14.224 23.9891 14.0162 23.1997 13.9916C21.5157 13.8153 19.8832 14.9964 19.0251 14.9964C18.1504 14.9964 16.8292 14.0091 15.4064 14.0383C14.4862 14.0679 13.5893 14.3348 12.8033 14.8128C12.0172 15.2909 11.3687 15.9638 10.921 16.7661C8.98154 20.1145 10.4282 25.0356 12.286 27.7422C13.2155 29.0676 14.3018 30.548 15.7232 30.4955C17.1142 30.438 17.6337 29.611 19.3127 29.611C20.9761 29.611 21.4635 30.4955 22.9138 30.4621C24.4063 30.438 25.3467 29.1309 26.2436 27.793C26.9115 26.8486 27.4254 25.8049 27.7663 24.7005C26.8992 24.3347 26.1592 23.7226 25.6386 22.9403C25.118 22.158 24.8399 21.2402 24.8389 20.3013Z" fill="white"/>
<path d="M22.0994 12.2113C22.9132 11.2371 23.3142 9.98494 23.2171 8.7207C21.9738 8.85092 20.8253 9.44348 20.0005 10.3803C19.5972 10.838 19.2884 11.3704 19.0916 11.9472C18.8948 12.524 18.8139 13.1337 18.8536 13.7417C19.4754 13.7481 20.0907 13.6137 20.6529 13.3486C21.2151 13.0835 21.7097 12.6946 22.0994 12.2113Z" fill="white"/>
<path d="M42.4215 27.1397H37.6748L36.5349 30.4961H34.5244L39.0204 18.0781H41.1093L45.6052 30.4961H43.5604L42.4215 27.1397ZM38.1664 25.5908H41.929L40.0742 20.1436H40.0223L38.1664 25.5908Z" fill="white"/>
<path d="M55.315 25.9695C55.315 28.7829 53.8049 30.5905 51.5261 30.5905C50.9488 30.6207 50.3747 30.4881 49.8695 30.2079C49.3643 29.9278 48.9484 29.5114 48.6694 29.0065H48.6263V33.4909H46.7627V21.4421H48.5666V22.948H48.6009C48.8927 22.4455 49.3156 22.0313 49.8246 21.7495C50.3337 21.4676 50.9098 21.3287 51.4918 21.3474C53.796 21.3474 55.315 23.1638 55.315 25.9695ZM53.3995 25.9695C53.3995 24.1365 52.4495 22.9314 51.0002 22.9314C49.5763 22.9314 48.6185 24.1618 48.6185 25.9695C48.6185 27.7937 49.5763 29.0154 51.0002 29.0154C52.4495 29.0154 53.3995 27.8191 53.3995 25.9695Z" fill="white"/>
<path d="M65.3082 25.9694C65.3082 28.7829 63.7981 30.5905 61.5192 30.5905C60.942 30.6206 60.3678 30.488 59.8626 30.2079C59.3574 29.9278 58.9415 29.5114 58.6626 29.0065H58.6195V33.4909H56.7559V21.4421H58.5597V22.948H58.594C58.8858 22.4455 59.3087 22.0313 59.8178 21.7495C60.3268 21.4676 60.903 21.3287 61.4849 21.3474C63.7893 21.3474 65.3082 23.1638 65.3082 25.9694ZM63.3926 25.9694C63.3926 24.1364 62.4427 22.9314 60.9933 22.9314C59.5694 22.9314 58.6117 24.1618 58.6117 25.9694C58.6117 27.7937 59.5694 29.0153 60.9933 29.0153C62.4427 29.0153 63.3926 27.8191 63.3926 25.9694H63.3926Z" fill="white"/>
<path d="M71.9126 27.0362C72.0507 28.2676 73.2503 29.0762 74.8897 29.0762C76.4605 29.0762 77.5906 28.2676 77.5906 27.1572C77.5906 26.1934 76.909 25.6162 75.2951 25.2207L73.6812 24.833C71.3946 24.2822 70.333 23.2158 70.333 21.4854C70.333 19.3428 72.2054 17.8711 74.8642 17.8711C77.4956 17.8711 79.2995 19.3428 79.3602 21.4854H77.4789C77.3663 20.2461 76.339 19.4981 74.8378 19.4981C73.3365 19.4981 72.3092 20.2549 72.3092 21.3565C72.3092 22.2344 72.9653 22.751 74.5704 23.1465L75.9424 23.4824C78.4974 24.0849 79.559 25.1084 79.559 26.9248C79.559 29.248 77.7032 30.7031 74.7516 30.7031C71.9899 30.7031 70.1253 29.2822 70.0049 27.0361L71.9126 27.0362Z" fill="white"/>
<path d="M83.5802 19.2998V21.4424H85.3067V22.9141H83.5802V27.9053C83.5802 28.6807 83.9259 29.042 84.6849 29.042C84.8898 29.0384 85.0945 29.0241 85.2979 28.999V30.4619C84.9567 30.5255 84.6099 30.5543 84.2628 30.5478C82.4246 30.5478 81.7078 29.8593 81.7078 28.1035V22.9141H80.3877V21.4424H81.7078V19.2998H83.5802Z" fill="white"/>
<path d="M86.3066 25.9697C86.3066 23.1211 87.9891 21.3311 90.6126 21.3311C93.245 21.3311 94.9196 23.1211 94.9196 25.9697C94.9196 28.8262 93.2538 30.6084 90.6126 30.6084C87.9724 30.6084 86.3066 28.8262 86.3066 25.9697ZM93.0207 25.9697C93.0207 24.0156 92.1227 22.8623 90.6126 22.8623C89.1025 22.8623 88.2055 24.0244 88.2055 25.9697C88.2055 27.9316 89.1025 29.0762 90.6126 29.0762C92.1227 29.0762 93.0207 27.9316 93.0207 25.9697H93.0207Z" fill="white"/>
<path d="M96.457 21.442H98.2345V22.983H98.2776C98.3979 22.5017 98.6806 22.0764 99.0783 21.7785C99.476 21.4806 99.9644 21.3284 100.461 21.3473C100.676 21.3465 100.89 21.3698 101.1 21.4166V23.1549C100.829 23.0723 100.546 23.0343 100.263 23.0426C99.9919 23.0316 99.722 23.0792 99.4714 23.1821C99.2209 23.285 98.9956 23.4408 98.8111 23.6386C98.6266 23.8365 98.4873 24.0719 98.4026 24.3286C98.318 24.5852 98.29 24.8571 98.3206 25.1256V30.4957H96.457L96.457 21.442Z" fill="white"/>
<path d="M109.692 27.8369C109.441 29.4805 107.836 30.6084 105.782 30.6084C103.141 30.6084 101.502 28.8437 101.502 26.0127C101.502 23.1729 103.15 21.3311 105.704 21.3311C108.216 21.3311 109.796 23.0518 109.796 25.7969V26.4336H103.383V26.5459C103.354 26.8791 103.395 27.2148 103.506 27.5306C103.616 27.8464 103.793 28.1352 104.024 28.3778C104.255 28.6203 104.535 28.8111 104.846 28.9374C105.156 29.0637 105.49 29.1226 105.826 29.1103C106.266 29.1515 106.708 29.0498 107.086 28.8203C107.463 28.5909 107.757 28.246 107.922 27.8369L109.692 27.8369ZM103.392 25.1348H107.931C107.948 24.8352 107.902 24.5354 107.797 24.2541C107.692 23.9729 107.53 23.7164 107.321 23.5006C107.112 23.2849 106.86 23.1145 106.582 23.0003C106.304 22.8861 106.005 22.8305 105.704 22.8369C105.401 22.8351 105.1 22.8933 104.819 23.008C104.538 23.1227 104.283 23.2918 104.068 23.5054C103.853 23.7191 103.683 23.973 103.567 24.2527C103.451 24.5323 103.391 24.8321 103.392 25.1348V25.1348Z" fill="white"/>
<path d="M37.9328 8.73138C38.3235 8.70342 38.7156 8.76228 39.0807 8.90371C39.4458 9.04515 39.7749 9.26563 40.0443 9.54925C40.3136 9.83288 40.5165 10.1726 40.6382 10.5438C40.76 10.9151 40.7976 11.3087 40.7483 11.6962C40.7483 13.6025 39.7151 14.6982 37.9328 14.6982H35.7715V8.73138H37.9328ZM36.7008 13.8544H37.829C38.1082 13.871 38.3876 13.8254 38.6468 13.7208C38.9061 13.6161 39.1387 13.4552 39.3277 13.2496C39.5168 13.0441 39.6574 12.7991 39.7395 12.5324C39.8216 12.2658 39.8431 11.9843 39.8023 11.7084C39.8401 11.4335 39.8165 11.1538 39.7331 10.8891C39.6498 10.6244 39.5088 10.3814 39.3202 10.1775C39.1316 9.97358 38.9001 9.81378 38.6423 9.70954C38.3845 9.6053 38.1068 9.55922 37.829 9.57459H36.7008V13.8544Z" fill="white"/>
<path d="M41.7982 12.4448C41.7698 12.1489 41.8037 11.8503 41.8978 11.5682C41.9919 11.2862 42.1441 11.0268 42.3446 10.8068C42.5451 10.5868 42.7895 10.4111 43.0621 10.2908C43.3347 10.1705 43.6296 10.1084 43.9277 10.1084C44.2258 10.1084 44.5206 10.1705 44.7932 10.2908C45.0658 10.4111 45.3102 10.5868 45.5107 10.8068C45.7112 11.0268 45.8634 11.2862 45.9575 11.5682C46.0516 11.8503 46.0855 12.1489 46.0572 12.4448C46.0861 12.741 46.0525 13.04 45.9587 13.3225C45.8648 13.605 45.7127 13.8648 45.5122 14.0853C45.3116 14.3057 45.0671 14.4818 44.7942 14.6023C44.5213 14.7229 44.2261 14.7851 43.9277 14.7851C43.6292 14.7851 43.334 14.7229 43.0612 14.6023C42.7883 14.4818 42.5437 14.3057 42.3431 14.0853C42.1426 13.8648 41.9905 13.605 41.8966 13.3225C41.8028 13.04 41.7692 12.741 41.7982 12.4448ZM45.1405 12.4448C45.1405 11.4687 44.7008 10.8979 43.9291 10.8979C43.1545 10.8979 42.7187 11.4687 42.7187 12.4448C42.7187 13.4287 43.1545 13.9951 43.9291 13.9951C44.7008 13.9951 45.1405 13.4248 45.1405 12.4448H45.1405Z" fill="white"/>
<path d="M51.7181 14.6982H50.7937L49.8604 11.3818H49.7899L48.8605 14.6982H47.9449L46.7002 10.1953H47.6041L48.413 13.6313H48.4796L49.408 10.1953H50.2629L51.1913 13.6313H51.2618L52.0668 10.1953H52.9579L51.7181 14.6982Z" fill="white"/>
<path d="M54.0049 10.1949H54.8628V10.9102H54.9293C55.0423 10.6533 55.2329 10.4379 55.4744 10.2941C55.716 10.1503 55.9965 10.0852 56.2769 10.1079C56.4966 10.0915 56.7172 10.1245 56.9224 10.2046C57.1275 10.2847 57.312 10.4098 57.4621 10.5707C57.6122 10.7315 57.7241 10.924 57.7895 11.1338C57.8549 11.3436 57.8721 11.5654 57.8398 11.7827V14.6977H56.9487V12.0059C56.9487 11.2823 56.6333 10.9224 55.9743 10.9224C55.8251 10.9155 55.6762 10.9408 55.5377 10.9966C55.3993 11.0525 55.2746 11.1375 55.1722 11.2459C55.0698 11.3543 54.9921 11.4834 54.9444 11.6246C54.8967 11.7657 54.8802 11.9154 54.896 12.0635V14.6978H54.0049L54.0049 10.1949Z" fill="white"/>
<path d="M59.2598 8.4375H60.1509V14.6982H59.2598V8.4375Z" fill="white"/>
<path d="M61.3899 12.4449C61.3616 12.1489 61.3955 11.8503 61.4897 11.5683C61.5838 11.2862 61.736 11.0268 61.9365 10.8068C62.137 10.5869 62.3815 10.4111 62.6541 10.2908C62.9267 10.1705 63.2216 10.1084 63.5197 10.1084C63.8178 10.1084 64.1126 10.1705 64.3853 10.2908C64.6579 10.4111 64.9023 10.5869 65.1028 10.8068C65.3034 11.0268 65.4556 11.2862 65.5497 11.5683C65.6438 11.8503 65.6778 12.1489 65.6494 12.4449C65.6783 12.7411 65.6447 13.0401 65.5508 13.3226C65.457 13.6051 65.3048 13.8649 65.1043 14.0853C64.9037 14.3058 64.6591 14.4819 64.3862 14.6024C64.1133 14.7229 63.8181 14.7852 63.5197 14.7852C63.2212 14.7852 62.926 14.7229 62.6531 14.6024C62.3802 14.4819 62.1356 14.3058 61.9351 14.0853C61.7345 13.8649 61.5824 13.6051 61.4885 13.3226C61.3946 13.0401 61.361 12.7411 61.3899 12.4449ZM64.7323 12.4449C64.7323 11.4688 64.2926 10.898 63.5209 10.898C62.7463 10.898 62.3105 11.4688 62.3105 12.4449C62.3105 13.4288 62.7463 13.9952 63.5209 13.9952C64.2926 13.9952 64.7323 13.4248 64.7323 12.4449H64.7323Z" fill="white"/>
<path d="M66.5879 13.4248C66.5879 12.6142 67.1931 12.147 68.2674 12.0806L69.4906 12.0102V11.6216C69.4906 11.146 69.1752 10.8774 68.5661 10.8774C68.0686 10.8774 67.7239 11.0596 67.625 11.3779H66.7622C66.8533 10.6045 67.5829 10.1084 68.6072 10.1084C69.7393 10.1084 70.3778 10.6704 70.3778 11.6216V14.6982H69.5199V14.0654H69.4494C69.3063 14.2924 69.1053 14.4775 68.867 14.6017C68.6288 14.7259 68.3617 14.7848 68.0931 14.7724C67.9035 14.7921 67.7119 14.7719 67.5307 14.7132C67.3494 14.6545 67.1825 14.5586 67.0407 14.4316C66.8988 14.3047 66.7853 14.1495 66.7073 13.9761C66.6293 13.8026 66.5886 13.6149 66.5879 13.4248ZM69.4906 13.04V12.6636L68.3879 12.7339C67.766 12.7754 67.4839 12.9863 67.4839 13.3833C67.4839 13.7886 67.8365 14.0244 68.3213 14.0244C68.4633 14.0387 68.6068 14.0244 68.7432 13.9823C68.8796 13.9403 69.0061 13.8712 69.1152 13.7794C69.2243 13.6876 69.3137 13.5748 69.3782 13.4477C69.4427 13.3207 69.4809 13.1821 69.4906 13.04Z" fill="white"/>
<path d="M71.5488 12.4448C71.5488 11.022 72.2823 10.1206 73.4232 10.1206C73.7054 10.1077 73.9855 10.1751 74.2307 10.315C74.4759 10.4548 74.6761 10.6615 74.808 10.9106H74.8746V8.4375H75.7657V14.6982H74.9118V13.9868H74.8413C74.6993 14.2343 74.4921 14.4383 74.2421 14.5768C73.9922 14.7153 73.709 14.783 73.4232 14.7724C72.2745 14.7725 71.5488 13.8711 71.5488 12.4448ZM72.4694 12.4448C72.4694 13.3999 72.9209 13.9746 73.6759 13.9746C74.427 13.9746 74.8912 13.3916 74.8912 12.4487C74.8912 11.5103 74.4221 10.919 73.6759 10.919C72.9257 10.919 72.4694 11.4976 72.4694 12.4448H72.4694Z" fill="white"/>
<path d="M79.4525 12.4448C79.4241 12.1489 79.458 11.8503 79.5521 11.5682C79.6462 11.2862 79.7984 11.0268 79.9989 10.8068C80.1994 10.5868 80.4438 10.4111 80.7164 10.2908C80.989 10.1705 81.2838 10.1084 81.582 10.1084C81.8801 10.1084 82.1749 10.1705 82.4475 10.2908C82.7201 10.4111 82.9645 10.5868 83.165 10.8068C83.3655 11.0268 83.5177 11.2862 83.6118 11.5682C83.7059 11.8503 83.7398 12.1489 83.7114 12.4448C83.7404 12.741 83.7068 13.04 83.613 13.3225C83.5191 13.605 83.367 13.8648 83.1665 14.0853C82.9659 14.3057 82.7213 14.4818 82.4485 14.6023C82.1756 14.7229 81.8804 14.7851 81.582 14.7851C81.2835 14.7851 80.9883 14.7229 80.7154 14.6023C80.4426 14.4818 80.198 14.3057 79.9974 14.0853C79.7969 13.8648 79.6448 13.605 79.5509 13.3225C79.4571 13.04 79.4235 12.741 79.4525 12.4448ZM82.7948 12.4448C82.7948 11.4687 82.3551 10.8979 81.5834 10.8979C80.8088 10.8979 80.373 11.4687 80.373 12.4448C80.373 13.4287 80.8088 13.9951 81.5834 13.9951C82.3551 13.9951 82.7948 13.4248 82.7948 12.4448Z" fill="white"/>
<path d="M84.9072 10.1949H85.7651V10.9102H85.8317C85.9447 10.6533 86.1352 10.4379 86.3768 10.2941C86.6183 10.1503 86.8988 10.0852 87.1792 10.1079C87.3989 10.0915 87.6196 10.1245 87.8247 10.2046C88.0299 10.2847 88.2144 10.4098 88.3645 10.5707C88.5146 10.7315 88.6265 10.924 88.6919 11.1338C88.7572 11.3436 88.7744 11.5654 88.7422 11.7827V14.6977H87.851V12.0059C87.851 11.2823 87.5357 10.9224 86.8766 10.9224C86.7274 10.9155 86.5785 10.9408 86.4401 10.9966C86.3016 11.0525 86.1769 11.1375 86.0745 11.2459C85.9721 11.3543 85.8944 11.4834 85.8467 11.6246C85.7991 11.7657 85.7826 11.9154 85.7984 12.0635V14.6978H84.9072V10.1949Z" fill="white"/>
<path d="M93.7779 9.07422V10.2158H94.7563V10.9644H93.7779V13.2798C93.7779 13.7515 93.9728 13.958 94.4165 13.958C94.53 13.9576 94.6435 13.9508 94.7563 13.9375V14.6777C94.5962 14.7063 94.4341 14.7215 94.2715 14.7231C93.2805 14.7231 92.8858 14.3755 92.8858 13.5073V10.9643H92.1689V10.2158H92.8858V9.07422H93.7779Z" fill="white"/>
<path d="M95.9736 8.4375H96.857V10.919H96.9275C97.0459 10.6596 97.2417 10.443 97.4881 10.2987C97.7345 10.1543 98.0195 10.0893 98.3043 10.1123C98.5229 10.1004 98.7414 10.1368 98.9442 10.2189C99.1471 10.3009 99.3293 10.4266 99.4778 10.5869C99.6263 10.7473 99.7376 10.9383 99.8035 11.1465C99.8695 11.3546 99.8886 11.5747 99.8595 11.791V14.6982H98.9674V12.0103C98.9674 11.291 98.6315 10.9268 98.0018 10.9268C97.8486 10.9142 97.6946 10.9352 97.5504 10.9883C97.4062 11.0413 97.2754 11.1252 97.1671 11.2339C97.0588 11.3426 96.9756 11.4737 96.9234 11.6178C96.8712 11.7619 96.8512 11.9157 96.8648 12.0683V14.6982H95.9737L95.9736 8.4375Z" fill="white"/>
<path d="M105.056 13.4825C104.935 13.894 104.673 14.25 104.315 14.4882C103.957 14.7263 103.527 14.8315 103.099 14.7852C102.802 14.7931 102.506 14.7362 102.233 14.6187C101.96 14.5012 101.715 14.3258 101.517 14.1046C101.318 13.8835 101.171 13.6219 101.084 13.3381C100.997 13.0543 100.973 12.755 101.013 12.461C100.974 12.1661 100.998 11.8662 101.085 11.5815C101.172 11.2969 101.319 11.0341 101.516 10.811C101.714 10.5879 101.957 10.4098 102.229 10.2886C102.502 10.1674 102.797 10.1059 103.095 10.1085C104.352 10.1085 105.11 10.9645 105.11 12.3785V12.6886H101.921V12.7384C101.907 12.9036 101.928 13.0699 101.982 13.2267C102.037 13.3834 102.123 13.5271 102.236 13.6486C102.35 13.7701 102.487 13.8666 102.64 13.932C102.793 13.9974 102.958 14.0302 103.124 14.0284C103.337 14.0539 103.553 14.0156 103.744 13.9184C103.936 13.8212 104.094 13.6694 104.198 13.4825L105.056 13.4825ZM101.921 12.0313H104.202C104.213 11.8802 104.193 11.7284 104.142 11.5857C104.09 11.443 104.01 11.3125 103.905 11.2026C103.801 11.0928 103.674 11.006 103.534 10.9478C103.393 10.8896 103.242 10.8613 103.09 10.8648C102.936 10.8629 102.783 10.8917 102.641 10.9497C102.498 11.0076 102.368 11.0935 102.259 11.2022C102.15 11.3109 102.064 11.4403 102.006 11.5827C101.948 11.7251 101.919 11.8776 101.921 12.0313H101.921Z" fill="white"/>
</g>
<defs>
<clipPath id="clip0">
<rect width="120" height="40" fill="white"/>
</clipPath>
</defs>
</svg>
