<svg width="64" height="64" viewBox="0 0 64 64" fill="none" xmlns="http://www.w3.org/2000/svg">
<path fill-rule="evenodd" clip-rule="evenodd" d="M47.9086 20.1133C50.0218 20.1129 52.1144 20.5254 54.0668 21.3273C56.0193 22.1291 57.7934 23.3046 59.2878 24.7866C60.7821 26.2686 61.9674 28.0281 62.776 29.9644C63.5845 31.9008 64.0005 33.9762 64.0001 36.0721L64.0001 36.0752C63.9947 39.0881 63.1276 42.0376 61.4995 44.5813C60.1043 46.761 58.1994 48.566 55.9543 49.8477V62.0041C55.9543 62.811 55.4643 63.5383 54.7127 63.8471C53.961 64.1559 53.0959 63.9852 52.5206 63.4147L41.0412 52.0301H39.8629C35.5952 52.0301 31.5023 50.3488 28.4846 47.356C25.4668 44.3632 23.7715 40.3041 23.7715 36.0717C23.7715 31.8393 25.4668 27.7802 28.4846 24.7874C31.5023 21.7946 35.5952 20.1133 39.8629 20.1133H47.9086C47.9088 20.1133 47.9085 20.1133 47.9086 20.1133ZM52.5277 25.0133C51.0633 24.412 49.4939 24.1026 47.909 24.1029H39.8629C36.6621 24.1029 33.5924 25.3639 31.3291 27.6085C29.0658 29.8531 27.7943 32.8974 27.7943 36.0717C27.7943 39.246 29.0658 42.2903 31.3291 44.5349C33.5924 46.7795 36.6621 48.0405 39.8629 48.0405H41.8743C42.4078 48.0405 42.9194 48.2507 43.2966 48.6248L51.9315 57.1883V48.6416C51.9315 47.87 52.3802 47.1676 53.0837 46.838C55.1424 45.8734 56.8829 44.3495 58.1031 42.4431C59.323 40.5373 59.9729 38.3274 59.9772 36.07C59.9773 34.4987 59.6654 32.9427 59.0592 31.4908C58.4528 30.0386 57.5639 28.7191 56.4432 27.6077C55.3225 26.4963 53.992 25.6147 52.5277 25.0133Z" fill="#383E66"/>
<path fill-rule="evenodd" clip-rule="evenodd" d="M15.9536 3.98963C13.2393 3.98332 10.604 4.90241 8.48206 6.59534C6.36016 8.28828 4.87846 10.654 4.28128 13.3023C3.6841 15.9506 4.00711 18.7234 5.19704 21.1634C6.38697 23.6035 8.37277 25.5651 10.827 26.7247C11.5245 27.0543 11.9695 27.7567 11.9695 28.5283V37.075L16.5424 32.5011C17.3212 31.7221 18.584 31.7221 19.3628 32.5011C20.1417 33.2801 20.1417 34.5432 19.3628 35.3222L11.3853 43.3014C10.8149 43.8719 9.95711 44.0426 9.21186 43.7338C8.46661 43.4251 7.98069 42.6977 7.98069 41.8909V29.7345C5.23295 28.1525 3.0105 25.7802 1.61202 22.9125C0.0244713 19.6571 -0.406472 15.9578 0.390254 12.4245C1.18698 8.89125 3.1638 5.73508 5.99472 3.47645C8.82502 1.21833 12.3401 -0.00783539 15.9604 3.76788e-05H23.9356C23.9357 3.76788e-05 23.9356 3.76788e-05 23.9356 3.76788e-05C27.3721 -0.000166475 30.7169 1.10901 33.4726 3.16263C36.2283 5.21628 38.2477 8.1047 39.2305 11.3984C39.5455 12.454 38.9452 13.5653 37.8897 13.8803C36.8343 14.1954 35.7233 13.595 35.4083 12.5393C34.6711 10.0688 33.1564 7.90225 31.0894 6.36185C29.0224 4.82144 26.5135 3.98946 23.9359 3.98964H15.9582L15.9536 3.98963Z" fill="#383E66"/>
</svg>
