<?xml version="1.0" encoding="UTF-8" standalone="no"?>
<svg width="142" height="34" viewBox="0 0 142 34" fill="none" xmlns="http://www.w3.org/2000/svg">
<path fill-rule="evenodd" clip-rule="evenodd" d="M13.5734 0C13.6469 0 13.7195 0.0039035 13.7912 0.0104685C19.6015 0.252308 24.2379 5.04758 24.2379 10.9286C24.2379 16.8328 19.5649 21.6426 13.7225 21.8493C13.662 21.8539 13.6007 21.8571 13.5385 21.8571H4.84765V31.5713C4.84765 32.907 3.757 33.9998 2.42391 33.9998C1.09066 33.9998 0 32.907 0 31.5713V19.4284C0 18.0929 1.09066 16.9999 2.42391 16.9999L2.43264 17.0002L2.44109 17.0005L2.4499 17.0002L2.45845 16.9999H4.26115H13.3308C16.6775 16.9999 19.3903 14.2818 19.3903 10.9286C19.3903 7.57545 16.6775 4.8572 13.3308 4.8572H4.26115H2.49315C1.16007 4.8572 0.0694166 3.76439 0.0694166 2.42869C0.0694166 1.09298 1.16007 0 2.49315 0H13.5734ZM33.933 29.1428H50.8996C52.2326 29.1428 53.3235 30.2356 53.3235 31.5713C53.3235 32.907 52.2326 34 50.8996 34H31.5093C30.1762 34 29.0854 32.907 29.0854 31.5713V16.653C29.0854 15.3173 30.1762 14.2245 31.5093 14.2245H46.0521C47.385 14.2245 48.4756 15.3173 48.4756 16.653C48.4756 17.9887 47.385 19.0815 46.0521 19.0815H33.933V29.1428ZM50.8996 0H31.5093C30.1762 0 29.0854 1.09298 29.0854 2.42869C29.0854 3.76422 30.1762 4.8572 31.5093 4.8572H50.8996C52.2326 4.8572 53.3235 3.76422 53.3235 2.42869C53.3235 1.09298 52.2326 0 50.8996 0ZM83.5457 19.424C83.5457 18.0886 84.6364 16.996 85.9691 16.996C87.3018 16.996 88.3923 18.0886 88.3923 19.424V31.5641C88.3923 31.5729 88.3918 31.5818 88.3916 31.5907C88.3863 32.2786 88.0934 32.9604 87.5296 33.4345C86.5085 34.293 84.9723 34.1583 84.1156 33.1352L63.9867 9.09941V31.5641C63.9867 32.8994 62.8962 33.992 61.5635 33.992C60.2306 33.992 59.1403 32.8994 59.1403 31.5641V2.42798C59.1403 2.41904 59.1406 2.41018 59.1409 2.40129V2.40122L59.1414 2.3877C59.1417 2.36392 59.1421 2.33997 59.1431 2.3162C59.144 2.30013 59.145 2.2844 59.146 2.26852L59.1461 2.26669L59.1472 2.25164L59.1473 2.25105C59.1486 2.23208 59.15 2.21305 59.1518 2.19412C59.1527 2.18382 59.1539 2.17351 59.1552 2.1632L59.1564 2.1526C59.1594 2.12475 59.163 2.09689 59.167 2.06921C59.1681 2.06194 59.1693 2.0548 59.1706 2.04757L59.1711 2.04437C59.2591 1.48564 59.5393 0.955115 60.0031 0.565298C60.4222 0.212918 60.9283 0.0282117 61.4387 0.0033712C61.4404 0.00319377 61.4426 0.00319377 61.4445 0.00319377C61.4805 0.00141945 61.5164 0.000354864 61.5523 0.000354864L61.5579 0.000177432L61.5635 0C61.5738 0 61.584 0.000345397 61.5942 0.000691368L61.6127 0.00124202L61.634 0.0017651C61.6446 0.00200002 61.6553 0.00223435 61.666 0.00266148C61.6947 0.0039035 61.7231 0.00585525 61.7516 0.00816186L61.7606 0.00881732L61.7606 0.00881904C61.7668 0.00925715 61.7729 0.00969364 61.779 0.010291C61.8114 0.01313 61.8437 0.016856 61.8755 0.020937L61.8843 0.0220552L61.8936 0.0232436C61.9262 0.0278568 61.9586 0.0330023 61.9908 0.0388576L62.0105 0.0424062C62.0404 0.048084 62.0701 0.0542941 62.0997 0.0610365L62.1084 0.0630887L62.1311 0.0683113C62.1555 0.0743439 62.1799 0.0807315 62.2042 0.0874739C62.2215 0.0920871 62.2387 0.0970552 62.2561 0.102201C62.2705 0.106457 62.2847 0.110994 62.299 0.115561L62.2991 0.115596L62.3044 0.117282C62.3315 0.125977 62.3584 0.135203 62.3852 0.144784L62.3917 0.147166L62.4015 0.150817C62.7847 0.291698 63.1371 0.530344 63.4169 0.864625L83.5457 24.9004V19.424ZM114.5 2.42559C114.5 1.09166 113.411 0.000276693 112.079 0.000276693H98.939H85.7989C84.4675 0.000276693 83.3783 1.09166 83.3783 2.42559C83.3783 3.75952 84.4675 4.85091 85.7989 4.85091H96.5184V14.5522C96.5184 15.8861 97.6076 16.9775 98.939 16.9775C100.27 16.9775 101.36 15.8861 101.36 14.5522V4.85091H112.079C113.411 4.85091 114.5 3.75952 114.5 2.42559ZM128.508 1.44021L141.458 30.5836C142.001 31.8041 141.447 33.2475 140.229 33.791C139.011 34.3345 137.571 33.7804 137.028 32.5598L125.029 5.55628L113.03 32.5598C112.488 33.7804 111.047 34.3345 109.829 33.791C108.611 33.2475 108.058 31.8041 108.6 30.5836L121.55 1.44021C121.96 0.517746 122.883 -0.0235984 123.835 0.00141945V0H126.26V0.000532295C127.199 -0.00975875 128.104 0.529634 128.508 1.44021Z" fill="#fff"/>
</svg>