<svg id="open-menu" xmlns="http://www.w3.org/2000/svg" width="41.539" height="30" viewBox="0 0 41.539 30">
  <path id="Path_17" data-name="Path 17" d="M39.808,126.121H1.731a1.727,1.727,0,1,1,0-3.453H39.808a1.727,1.727,0,1,1,0,3.453Zm0,0" transform="translate(0 -109.394)" fill="#383e66"/>
  <path id="Path_18" data-name="Path 18" d="M39.808,3.453H1.731A1.727,1.727,0,1,1,1.731,0H39.808a1.727,1.727,0,1,1,0,3.453Zm0,0" fill="#383e66"/>
  <path id="Path_19" data-name="Path 19" d="M39.808,248.785H1.731a1.727,1.727,0,1,1,0-3.453H39.808a1.727,1.727,0,1,1,0,3.453Zm0,0" transform="translate(0 -218.785)" fill="#383e66"/>
</svg>
